<?xml version="1.0" encoding="UTF-8" standalone="no"?>
<svg
   xmlns:dc="http://purl.org/dc/elements/1.1/"
   xmlns:cc="http://creativecommons.org/ns#"
   xmlns:rdf="http://www.w3.org/1999/02/22-rdf-syntax-ns#"
   xmlns:svg="http://www.w3.org/2000/svg"
   xmlns="http://www.w3.org/2000/svg"
   xmlns:sodipodi="http://sodipodi.sourceforge.net/DTD/sodipodi-0.dtd"
   xmlns:inkscape="http://www.inkscape.org/namespaces/inkscape"
   aria-hidden="true"
   focusable="false"
   data-prefix="fas"
   data-icon="utensils"
   class="svg-inline--fa fa-utensils fa-w-13"
   role="img"
   viewBox="0 0 416 512"
   version="1.1"
   id="svg4"
   sodipodi:docname="fork-solid-clr.svg"
   inkscape:version="1.0.2-2 (e86c870879, 2021-01-15)">
  <metadata
     id="metadata10">
    <rdf:RDF>
      <cc:Work
         rdf:about="">
        <dc:format>image/svg+xml</dc:format>
        <dc:type
           rdf:resource="http://purl.org/dc/dcmitype/StillImage" />
      </cc:Work>
    </rdf:RDF>
  </metadata>
  <defs
     id="defs8" />
  <sodipodi:namedview
     pagecolor="#ffffff"
     bordercolor="#666666"
     borderopacity="1"
     objecttolerance="10"
     gridtolerance="10"
     guidetolerance="10"
     inkscape:pageopacity="0"
     inkscape:pageshadow="2"
     inkscape:window-width="2400"
     inkscape:window-height="1284"
     id="namedview6"
     showgrid="false"
     inkscape:zoom="1.6445312"
     inkscape:cx="187.02138"
     inkscape:cy="217.69121"
     inkscape:window-x="2391"
     inkscape:window-y="-9"
     inkscape:window-maximized="1"
     inkscape:current-layer="svg4"
     inkscape:document-rotation="0"
     inkscape:lockguides="true" />
  <path
     fill="currentColor"
     d="m 308.27553,27.189456 c 0.8,4.561726 16.1,91.719814 16.1,125.010704 0,50.76134 -27.8,86.96398 -68.9,101.52268 l 12.9,231.09511 c 0.7,13.29695 -10.2,24.55568 -24,24.55568 h -64 c -13.7,0 -24.7,-11.16167 -24,-24.55568 l 12.9,-231.09511 c -41.2,-14.5587 -68.9,-50.8584 -68.9,-101.52268 0,-33.38795 15.3,-120.448978 16.1,-125.010704 3.2,-19.7027755 45.3,-19.9939495 47.9,1.067638 V 165.303 c 1.3,3.29997 15.1,3.10585 16,0 1.4,-24.55568 7.9,-135.104746 8,-137.628254 3.3,-20.1880655 44.7,-20.1880655 47.9,0 0.2,2.620566 6.6,113.072574 8,137.628254 0.9,3.10585 14.8,3.29997 16,0 V 28.257094 c 2.6,-20.9645295 44.8,-20.7704135 48,-1.067638 z"
     id="path2"
     sodipodi:nodetypes="csccssccscccccccccc"
     style="stroke-width:0.98518" />
  <path
     style="fill:#000000;fill-opacity:1;stroke:#ffffff;stroke-width:6.011;stroke-miterlimit:4;stroke-dasharray:none;stroke-opacity:1"
     d="m 177.32389,510.05081 c -7.45903,-1.05555 -14.77967,-6.46883 -18.1551,-13.42488 -1.37015,-2.82357 -1.6717,-4.35652 -1.82836,-9.29449 -0.14816,-4.66984 11.15841,-213.74817 12.3914,-229.13868 l 0.30791,-3.84361 -5.03187,-1.99086 c -21.98765,-8.69941 -40.73078,-25.27341 -51.52758,-45.56428 -11.32164,-21.27726 -14.820829,-43.73826 -11.75286,-75.44057 2.07245,-21.41518 7.46964,-59.620995 12.80057,-90.613151 3.02292,-17.574196 3.75276,-19.400911 9.19295,-23.009003 5.99158,-3.973764 16.67602,-5.591903 24.61084,-3.727255 4.5231,1.062914 9.91768,3.999101 12.31743,6.704199 4.10799,4.630669 3.92318,0.98992 3.92318,77.279367 0,65.165073 0.0598,69.039223 1.07248,69.457623 3.66938,1.5161 12.9131,1.22565 14.66078,-0.46065 0.58351,-0.56298 1.83197,-18.62589 4.81343,-69.640975 2.21407,-37.884447 4.28748,-69.837666 4.60754,-71.007151 0.8457,-3.089965 3.88868,-6.836254 7.19896,-8.862842 10.80993,-6.617943 28.62057,-5.031875 36.127,3.217177 3.75081,4.121883 3.51228,1.800646 7.84754,76.365769 2.91663,50.165262 4.23348,69.391702 4.79003,69.936642 1.71156,1.67582 10.98232,1.96453 14.63077,0.45566 0.99856,-0.41299 1.07258,-4.67602 1.2257,-70.599787 l 0.16297,-70.160259 1.82587,-3.180897 c 3.66408,-6.383286 10.27049,-9.576245 20.67251,-9.991272 5.42507,-0.216453 7.28624,-0.04971 10.72494,0.960794 6.9195,2.033407 11.80544,5.730979 13.6039,10.295154 1.80905,4.590985 11.15478,65.077952 14.41896,93.321587 2.45458,21.23851 3.10127,33.86421 2.25928,44.10875 -2.36402,28.76327 -12.13927,50.38272 -30.97995,68.51696 -10.45738,10.06526 -21.46173,17.23026 -33.59799,21.87587 l -4.13675,1.5835 0.002,3.04159 c 0.001,1.67286 2.88236,54.39819 6.40319,117.16741 4.80532,85.66898 6.2549,114.86306 5.81354,117.08246 -1.94142,9.7624 -10.11666,17.14888 -20.59848,18.61108 -5.04098,0.7032 -65.79615,0.67663 -70.79639,-0.031 z"
     id="path835" />
  <path
     style="fill:none;fill-rule:evenodd;stroke:#000000;stroke-width:0.964293px;stroke-linecap:butt;stroke-linejoin:miter;stroke-opacity:1"
     d="m 167.82898,337.12129 v 0"
     id="path909"
     inkscape:connector-type="polyline"
     inkscape:connector-curvature="0" />
  <path
     style="fill:#9356dc;fill-opacity:1;stroke:#ff79da;stroke-width:9.78188;stroke-miterlimit:4;stroke-dasharray:none;stroke-opacity:1"
     d="m 175.51374,506.93748 c -8.09059,-0.99347 -16.03108,-6.08839 -19.69231,-12.63535 -1.48619,-2.65748 -1.81326,-4.1003 -1.9832,-8.74786 -0.16068,-4.39519 0,0 10.11689,-177.24491 l 100.39822,-0.15763 c 5.78429,80.60166 10.77299,179.20951 10.29425,181.2984 -2.1058,9.18824 -10.97326,16.14033 -22.34259,17.51652 -5.46781,0.66186 -71.36725,0.63684 -76.79087,-0.0293 z"
     id="path835-1"
     sodipodi:nodetypes="cssccsscc" />
  <path
     style="fill:#000000;fill-opacity:0;stroke:none;stroke-width:9.101;stroke-miterlimit:4;stroke-dasharray:none"
     d="m 167.48707,305.53457 c 0.006,-1.29784 0.53694,-11.56273 1.17965,-22.81083 0.64273,-11.2481 0.98003,-20.60689 0.74957,-20.79729 -0.23045,-0.19041 -2.06201,-1.00756 -4.07013,-1.81589 -12.31563,-4.95746 -24.70509,-13.36671 -34.36226,-23.32312 -7.9626,-8.20934 -13.4784,-16.16202 -18.54886,-26.74373 -4.50231,-9.39601 -7.02584,-16.9632 -9.23341,-27.68765 -2.13583,-10.37598 -2.64846,-30.78968 -1.17723,-46.88019 2.83193,-30.9726 13.59054,-105.166426 16.10621,-111.072243 1.49971,-3.52072 4.58508,-6.502666 8.87726,-8.57969 11.01179,-5.32869 25.46902,-3.495792 32.88082,4.168653 4.83563,5.000473 4.54469,-0.118691 4.54469,79.964876 0,65.539984 0.0805,71.301384 1.00796,72.096004 1.49783,1.28337 13.22023,1.20929 14.47732,-0.0914 0.91947,-0.95142 1.35648,-7.84976 7.972,-125.841666 0.53363,-9.517625 1.23203,-18.354748 1.552,-19.638052 2.29413,-9.201217 16.37497,-15.588847 28.93443,-13.125806 8.53851,1.674494 15.50044,6.711155 17.12223,12.387196 0.42909,1.501832 2.40119,32.1943 4.69015,72.994673 2.17235,38.721745 4.08736,71.012015 4.25558,71.756155 0.18175,0.80403 1.08487,1.63379 2.22589,2.04511 2.59976,0.93718 10.20513,0.86026 12.08329,-0.12221 l 1.5213,-0.79579 0.30427,-72.346919 0.30426,-72.346922 1.34567,-2.601663 c 1.80848,-3.496455 4.57654,-6.256624 8.15508,-8.13182 12.58232,-6.5932835 31.22965,-2.838862 36.2744,7.303425 3.26272,6.559584 14.76884,87.259469 17.2667,121.102509 2.74621,37.20798 -7.22097,68.65219 -28.94782,91.32381 -10.1784,10.621 -19.87729,17.49155 -32.81311,23.24433 -5.5028,2.44718 -6.17101,2.91938 -6.35757,4.49262 -0.20924,1.76432 1.48724,36.5462 2.02703,41.55898 l 0.28798,2.67438 H 212.79921 167.476 l 0.0111,-2.35976 z"
     id="path948" />
</svg>
