<?xml version="1.0" encoding="UTF-8" standalone="no"?>
<svg
   xmlns:dc="http://purl.org/dc/elements/1.1/"
   xmlns:cc="http://creativecommons.org/ns#"
   xmlns:rdf="http://www.w3.org/1999/02/22-rdf-syntax-ns#"
   xmlns:svg="http://www.w3.org/2000/svg"
   xmlns="http://www.w3.org/2000/svg"
   xmlns:sodipodi="http://sodipodi.sourceforge.net/DTD/sodipodi-0.dtd"
   xmlns:inkscape="http://www.inkscape.org/namespaces/inkscape"
   aria-hidden="true"
   focusable="false"
   data-prefix="fas"
   data-icon="utensils"
   class="svg-inline--fa fa-utensils fa-w-13"
   role="img"
   viewBox="0 0 416 512"
   version="1.1"
   id="svg4"
   sodipodi:docname="knife-solid-clr.svg"
   inkscape:version="1.0.2-2 (e86c870879, 2021-01-15)">
  <path
     style="fill:#ffffff;fill-opacity:1;stroke-width:0.393597"
     d="m 203.62602,511.95201 c -7.40482,-1.08603 -14.67728,-6.66189 -18.00577,-13.80517 -1.26933,-2.72412 -1.66155,-4.59622 -1.81133,-8.64567 -0.11099,-3.00081 2.88172,-42.89214 7.13537,-95.11081 4.0296,-49.46819 7.32655,-90.68846 7.32655,-91.6006 0,-1.36944 -1.1897,-2.65023 -6.82728,-7.35 -36.06546,-30.06595 -57.10477,-65.77628 -62.82404,-106.63218 -1.1029,-7.87861 -1.24262,-25.772 -0.27063,-34.66033 2.97041,-27.16301 13.76792,-55.802784 30.49045,-80.874111 12.32103,-18.472376 24.14331,-31.593893 40.34361,-44.777288 20.78199,-16.911856 44.16453,-27.194841 62.1576,-27.335171 6.28671,-0.049 7.85918,0.27206 12.33171,2.51808 6.72917,3.379266 11.49025,9.980485 12.73603,17.658452 0.87682,5.404006 0.88361,465.056768 0.007,470.596268 -1.67781,10.60179 -9.73436,18.50119 -20.4492,20.05031 -4.97901,0.71985 -57.39744,0.69313 -62.34002,-0.0318 z"
     id="path837-7" />
  <metadata
     id="metadata10">
    <rdf:RDF>
      <cc:Work
         rdf:about="">
        <dc:format>image/svg+xml</dc:format>
        <dc:type
           rdf:resource="http://purl.org/dc/dcmitype/StillImage" />
      </cc:Work>
    </rdf:RDF>
  </metadata>
  <defs
     id="defs8" />
  <sodipodi:namedview
     pagecolor="#ffffff"
     bordercolor="#666666"
     borderopacity="1"
     objecttolerance="10"
     gridtolerance="10"
     guidetolerance="10"
     inkscape:pageopacity="0"
     inkscape:pageshadow="2"
     inkscape:window-width="2400"
     inkscape:window-height="1284"
     id="namedview6"
     showgrid="false"
     inkscape:zoom="1.6445312"
     inkscape:cx="208"
     inkscape:cy="254.78385"
     inkscape:window-x="2391"
     inkscape:window-y="-9"
     inkscape:window-maximized="1"
     inkscape:current-layer="svg4"
     inkscape:document-rotation="0" />
  <path
     fill="currentColor"
     d="m 198.18788,301.50808 -15,185.1 c -1.2,14 9.9,26 23.9,26 h 56 c 13.3,0 24,-10.7 24,-24 V 24.608076 c 0,-13.2 -10.7,-23.99999997 -24,-23.99999997 -82.5,0 -221.399998,178.50000397 -64.9,300.90000397 z"
     id="path2"
     sodipodi:nodetypes="ccsssssc" />
  <path
     style="fill:#9356dc;fill-opacity:1;stroke-width:0.393597"
     d="m 203.62597,511.95203 c -7.40482,-1.08603 -14.67728,-6.66189 -18.00577,-13.80517 -1.26933,-2.72412 -1.66155,-4.59622 -1.81133,-8.64567 -0.11099,-3.00081 2.88172,-42.89214 7.13537,-95.11081 4.0296,-49.46819 7.24364,-92.8823 7.32655,-91.6006 45.09152,0.55565 42.95386,-0.0816 88.74553,-1.12945 0.87682,5.40401 0.27553,184.73372 -0.60108,190.27322 -1.67781,10.60179 -9.73436,18.50119 -20.4492,20.05031 -4.97901,0.71985 -57.39744,0.69313 -62.34002,-0.0318 z"
     id="path837"
     sodipodi:nodetypes="ssssccssss" />
</svg>
